
      <svg data-logo="logo" xmlns="http://www.w3.org/2000/svg" viewBox="0 0 231 43">
        <g id="logogram" transform="translate(0, 1) rotate(0)"><path fill-rule="evenodd" clip-rule="evenodd" d="M20.9053 40.0799C31.951 40.0799 40.9053 31.1256 40.9053 20.0799C40.9053 9.03427 31.951 0.0799561 20.9053 0.0799561C9.85956 0.0799561 0.905273 9.03427 0.905273 20.0799C0.905273 31.1256 9.85956 40.0799 20.9053 40.0799ZM27.1446 9.3968C27.4483 8.31801 26.4014 7.68008 25.4453 8.36125L12.0984 17.8695C11.0615 18.6082 11.2246 20.0799 12.3434 20.0799H15.858V20.0527H22.7078L17.1265 22.022L14.666 30.7631C14.3623 31.8419 15.4091 32.4798 16.3653 31.7986L29.7122 22.2904C30.7491 21.5517 30.5859 20.0799 29.4672 20.0799H24.1374L27.1446 9.3968Z" fill="#3F4FCA"/></g>
        <g id="logotype" transform="translate(47, 9)"><path fill="#000000" d="M14.02 25L9.18 25L9.18 12.28L6.79 12.28L6.79 7.50L11.69 7.50L11.69 10.36L12.91 10.36Q13.93 8.84 15.48 8.01Q17.02 7.18 19.33 7.18L19.33 7.18Q22.98 7.18 24.97 9.18Q26.97 11.17 26.97 14.53L26.97 14.53L26.97 25L22.13 25L22.13 15.43Q22.13 13.51 21.09 12.50Q20.06 11.50 18.08 11.50L18.08 11.50Q16.09 11.50 15.06 12.50Q14.02 13.51 14.02 15.43L14.02 15.43L14.02 25ZM38.08 25.35L38.08 25.35Q35.23 25.35 33.11 24.23Q31.00 23.10 29.83 21.06Q28.66 19.02 28.66 16.22L28.66 16.22Q28.66 13.45 29.81 11.41Q30.97 9.37 33.10 8.26Q35.23 7.15 38.11 7.15L38.11 7.15Q40.97 7.15 43.07 8.26Q45.17 9.37 46.31 11.41Q47.45 13.45 47.45 16.25L47.45 16.25Q47.45 19.02 46.31 21.08Q45.17 23.13 43.06 24.24Q40.94 25.35 38.08 25.35ZM38.08 21.15L38.08 21.15Q40.27 21.15 41.44 19.82Q42.60 18.50 42.60 16.22L42.60 16.22Q42.60 13.95 41.44 12.65Q40.27 11.35 38.08 11.35L38.08 11.35Q35.87 11.35 34.69 12.65Q33.50 13.95 33.50 16.22L33.50 16.22Q33.50 18.50 34.69 19.82Q35.87 21.15 38.08 21.15ZM60.13 25L54.83 25Q52.96 25 51.92 24.05Q50.89 23.10 50.89 21.15L50.89 21.15L50.89 11.29L47.88 11.29L47.88 7.50L50.95 7.50L50.95 2.25L55.67 2.25L55.67 7.50L59.73 7.50L59.73 11.29L55.73 11.29L55.73 21.21L60.13 21.21L60.13 25ZM70.05 25.35L70.05 25.35Q67.22 25.35 65.12 24.23Q63.02 23.10 61.88 21.05Q60.75 18.99 60.75 16.19L60.75 16.19Q60.75 13.39 61.85 11.36Q62.96 9.34 65.02 8.24Q67.08 7.15 69.88 7.15L69.88 7.15Q72.62 7.15 74.59 8.20Q76.55 9.25 77.60 11.20Q78.65 13.16 78.65 15.87L78.65 15.87L78.65 17.50L65.38 17.50Q65.68 19.46 66.87 20.48Q68.07 21.50 70.02 21.50L70.02 21.50Q71.57 21.50 72.47 20.98Q73.38 20.45 73.75 19.37L73.75 19.37L78.60 19.37Q78.01 22.17 75.77 23.76Q73.52 25.35 70.05 25.35ZM65.50 14.30L65.50 14.30L74.02 14.30Q73.78 12.63 72.73 11.80Q71.68 10.97 69.90 10.97L69.90 10.97Q68.13 10.97 67.00 11.82Q65.88 12.66 65.50 14.30ZM86.59 25L81.75 25L81.75 12.28L79.35 12.28L79.35 7.50L84.25 7.50L84.25 10.36L85.54 10.36Q86.47 8.84 87.96 8.01Q89.45 7.18 91.63 7.18L91.63 7.18Q93.73 7.18 95.24 7.92Q96.74 8.67 97.64 10.13L97.64 10.13L97.76 10.13Q99.77 7.18 103.74 7.18L103.74 7.18Q107.12 7.18 109.10 9.15Q111.09 11.12 111.09 14.47L111.09 14.47L111.09 25L106.25 25L106.25 15.40Q106.25 11.50 102.54 11.50L102.54 11.50Q98.84 11.50 98.84 15.40L98.84 15.40L98.84 25L94.00 25L94.00 15.40Q94.00 11.50 90.23 11.50L90.23 11.50Q88.43 11.50 87.51 12.46Q86.59 13.42 86.59 15.40L86.59 15.40L86.59 25ZM119.40 25.32L119.40 25.32Q116.31 25.32 114.56 23.82Q112.81 22.32 112.81 19.87L112.81 19.87Q112.81 17.27 114.62 15.87Q116.43 14.47 119.81 14.47L119.81 14.47L124.83 14.47L124.83 13.80Q124.83 10.97 121.44 10.97L121.44 10.97Q118.50 10.97 117.88 13.01L117.88 13.01L113.07 13.01Q113.65 10.13 115.78 8.64Q117.91 7.15 121.44 7.15L121.44 7.15Q125.35 7.15 127.41 8.90Q129.46 10.65 129.46 14.00L129.46 14.00L129.46 20.22L131.74 20.22L131.74 25L126.84 25L126.84 22.14L125.61 22.14Q124.71 23.66 123.19 24.49Q121.68 25.32 119.40 25.32ZM120.13 21.65L120.13 21.65Q121.50 21.65 122.55 21.15Q123.60 20.65 124.21 19.82Q124.83 18.99 124.83 17.94L124.83 17.94L124.83 17.68L120.04 17.68Q117.42 17.68 117.42 19.63L117.42 19.63Q117.42 20.60 118.15 21.12Q118.88 21.65 120.13 21.65ZM138.45 25L133.60 25L133.60 0.50L138.45 0.50L138.45 13.77L138.56 13.77L145.45 7.50L151.22 7.50L143.78 14.21L151.77 25L146.12 25L140.37 17.15L138.45 18.73L138.45 25ZM160.41 25.35L160.41 25.35Q157.58 25.35 155.48 24.23Q153.38 23.10 152.24 21.05Q151.10 18.99 151.10 16.19L151.10 16.19Q151.10 13.39 152.21 11.36Q153.32 9.34 155.38 8.24Q157.43 7.15 160.23 7.15L160.23 7.15Q162.97 7.15 164.94 8.20Q166.91 9.25 167.96 11.20Q169.01 13.16 169.01 15.87L169.01 15.87L169.01 17.50L155.74 17.50Q156.03 19.46 157.23 20.48Q158.42 21.50 160.38 21.50L160.38 21.50Q161.92 21.50 162.83 20.98Q163.73 20.45 164.11 19.37L164.11 19.37L168.95 19.37Q168.37 22.17 166.13 23.76Q163.88 25.35 160.41 25.35ZM155.86 14.30L155.86 14.30L164.38 14.30Q164.14 12.63 163.09 11.80Q162.04 10.97 160.26 10.97L160.26 10.97Q158.48 10.97 157.36 11.82Q156.24 12.66 155.86 14.30ZM177.12 25L172.37 25L172.37 12.28L169.97 12.28L169.97 7.50L174.87 7.50L174.87 10.94L176.10 10.94Q176.80 9.10 178.32 8.20Q179.83 7.30 181.73 7.30L181.73 7.30L183.22 7.30L183.22 11.50L181.52 11.50Q179.25 11.50 178.19 12.78Q177.12 14.06 177.12 16.16L177.12 16.16L177.12 25Z"/></g>
        
      </svg>
    